<svg id="visual" viewBox="0 0 900 600" width="900" height="600" xmlns="http://www.w3.org/2000/svg" xmlns:xlink="http://www.w3.org/1999/xlink" version="1.1"><rect x="0" y="0" width="900" height="600" fill="#ffffff"></rect><path d="M565 600L408 600L408 514L575 514L575 429L494 429L494 343L555 343L555 257L564 257L564 171L544 171L544 86L479 86L479 0L900 0L900 86L900 86L900 171L900 171L900 257L900 257L900 343L900 343L900 429L900 429L900 514L900 514L900 600L900 600Z" fill="#d7d7d6"></path><path d="M521 600L535 600L535 514L562 514L562 429L679 429L679 343L669 343L669 257L549 257L549 171L535 171L535 86L527 86L527 0L900 0L900 86L900 86L900 171L900 171L900 257L900 257L900 343L900 343L900 429L900 429L900 514L900 514L900 600L900 600Z" fill="#cdcdcd"></path><path d="M798 600L753 600L753 514L778 514L778 429L761 429L761 343L756 343L756 257L761 257L761 171L800 171L800 86L794 86L794 0L900 0L900 86L900 86L900 171L900 171L900 257L900 257L900 343L900 343L900 429L900 429L900 514L900 514L900 600L900 600Z" fill="#c4c4c4"></path></svg>