<svg id="visual" viewBox="0 0 900 600" width="900" height="600" xmlns="http://www.w3.org/2000/svg" xmlns:xlink="http://www.w3.org/1999/xlink" version="1.1"><rect x="0" y="0" width="900" height="600" fill="#ffffff"></rect><path d="M337 0L494 0L494 86L327 86L327 171L408 171L408 257L347 257L347 343L338 343L338 429L358 429L358 514L423 514L423 600L0 600L0 514L0 514L0 429L0 429L0 343L0 343L0 257L0 257L0 171L0 171L0 86L0 86L0 0L0 0Z" fill="#d7d7d6"></path><path d="M381 0L367 0L367 86L340 86L340 171L223 171L223 257L233 257L233 343L353 343L353 429L367 429L367 514L375 514L375 600L0 600L0 514L0 514L0 429L0 429L0 343L0 343L0 257L0 257L0 171L0 171L0 86L0 86L0 0L0 0Z" fill="#cdcdcd"></path><path d="M104 0L149 0L149 86L124 86L124 171L141 171L141 257L146 257L146 343L141 343L141 429L102 429L102 514L108 514L108 600L0 600L0 514L0 514L0 429L0 429L0 343L0 343L0 257L0 257L0 171L0 171L0 86L0 86L0 0L0 0Z" fill="#c4c4c4"></path></svg>