<svg id="visual" viewBox="0 0 900 600" width="900" height="600" xmlns="http://www.w3.org/2000/svg" xmlns:xlink="http://www.w3.org/1999/xlink" version="1.1"><path d="M827 600L791 545L728 491L809 436L746 382L782 327L710 273L719 218L719 164L710 109L728 55L746 0L900 0L900 55L900 109L900 164L900 218L900 273L900 327L900 382L900 436L900 491L900 545L900 600Z" fill="#ffffff"></path><path d="M620 600L575 545L539 491L575 436L530 382L629 327L494 273L494 218L647 164L512 109L494 55L638 0L747 0L729 55L711 109L720 164L720 218L711 273L783 327L747 382L810 436L729 491L792 545L828 600Z" fill="#fcf6ed"></path><path d="M314 600L377 545L395 491L269 436L350 382L440 327L359 273L278 218L377 164L359 109L323 55L386 0L639 0L495 55L513 109L648 164L495 218L495 273L630 327L531 382L576 436L540 491L576 545L621 600Z" fill="#f9eddc"></path><path d="M215 600L233 545L314 491L116 436L251 382L314 327L296 273L188 218L287 164L260 109L242 55L233 0L387 0L324 55L360 109L378 164L279 218L360 273L441 327L351 382L270 436L396 491L378 545L315 600Z" fill="#f6e4ca"></path><path d="M0 600L0 545L0 491L0 436L0 382L0 327L0 273L0 218L0 164L0 109L0 55L0 0L234 0L243 55L261 109L288 164L189 218L297 273L315 327L252 382L117 436L315 491L234 545L216 600Z" fill="#f2dbb9"></path></svg>