<svg id="visual" viewBox="0 0 900 600" width="900" height="600" xmlns="http://www.w3.org/2000/svg" xmlns:xlink="http://www.w3.org/1999/xlink" version="1.1"><path d="M773 600L782 545L710 491L809 436L809 382L755 327L710 273L809 218L782 164L719 109L773 55L818 0L900 0L900 55L900 109L900 164L900 218L900 273L900 327L900 382L900 436L900 491L900 545L900 600Z" fill="#ffffff"></path><path d="M368 600L575 545L350 491L512 436L638 382L458 327L404 273L647 218L305 164L494 109L440 55L647 0L819 0L774 55L720 109L783 164L810 218L711 273L756 327L810 382L810 436L711 491L783 545L774 600Z" fill="#f2f2f2"></path><path d="M134 600L188 545L215 491L278 436L251 382L206 327L116 273L224 218L98 164L224 109L179 55L170 0L648 0L441 55L495 109L306 164L648 218L405 273L459 327L639 382L513 436L351 491L576 545L369 600Z" fill="#e6e6e6"></path><path d="M0 600L0 545L0 491L0 436L0 382L0 327L0 273L0 218L0 164L0 109L0 55L0 0L171 0L180 55L225 109L99 164L225 218L117 273L207 327L252 382L279 436L216 491L189 545L135 600Z" fill="#d9d9d9"></path></svg>